<svg width="388" height="462" viewBox="0 0 388 462" fill="none" xmlns="http://www.w3.org/2000/svg">
<path d="M63 55.5C160.5 35 231.167 80 206.5 126C184.6 172.623 129.301 173.417 82 209C34.6993 244.583 40.5361 371.814 102.5 340.845C252.496 265.876 318.962 178.269 327.935 173.417C356.602 157.917 534.113 119.271 543.908 151.307C555.281 188.508 134.301 463.927 129.301 469.427C124.301 474.927 108.675 555.2 147.675 586.2C186.675 617.2 543.443 280.935 562.443 270.078C581.443 259.221 580.872 322.897 584.079 340.845C587.285 358.792 313.397 574.395 301.175 596.2C288.953 618.005 380.675 566.7 380.675 566.7L562.175 450.7" stroke="#D4EAFF" stroke-width="100" stroke-linecap="round"/>
</svg>
