<svg width="50" height="89" viewBox="0 0 50 89" fill="none" xmlns="http://www.w3.org/2000/svg">
<path fill-rule="evenodd" clip-rule="evenodd" d="M46.3163 38.0688C48.6527 34.266 50 29.7904 50 25C50 11.1929 38.8071 0 25 0C11.1929 0 0 11.1929 0 25C0 29.0769 0.975882 32.9259 2.70679 36.3261C2.76889 36.4677 2.83496 36.6183 2.90472 36.7771C3.41311 37.9347 4.11708 39.5303 4.89936 41.2826C6.46098 44.7807 8.34438 48.9248 9.60557 51.4472C10.833 53.902 13.4405 60.2314 15.7597 65.9981C16.9149 68.8705 17.9922 71.5871 18.7807 73.5857C19.175 74.585 19.497 75.4047 19.7204 75.9744C19.8321 76.2593 19.9191 76.4817 19.9782 76.6328L20.0455 76.8049L20.0627 76.8488L20.067 76.8599L20.0681 76.8626L20.0683 76.8633C20.0683 76.8633 20.0683 76.8634 20.0699 76.8628L24.0638 87.5052C24.3883 88.3701 25.6117 88.3701 25.9362 87.5052L29.9271 76.8707L29.9286 76.8712L29.9288 76.8705L29.9299 76.8678L29.9342 76.857L29.9514 76.814L30.0188 76.6458L30.2768 76.0021C30.5003 75.4448 30.8224 74.6424 31.2168 73.6624C32.0055 71.7022 33.0832 69.0315 34.2389 66.1891C36.5543 60.4944 39.1707 54.1412 40.4104 51.4138C41.6635 48.657 43.5409 44.4014 45.1033 40.8392C45.5386 39.8466 45.9497 38.9074 46.3163 38.0688ZM38 24.5C38 31.4036 32.4036 37 25.5 37C18.5964 37 13 31.4036 13 24.5C13 17.5964 18.5964 12 25.5 12C32.4036 12 38 17.5964 38 24.5Z" fill="#FF1F1F"/>
</svg>
