<svg width="46" height="45" viewBox="0 0 46 45" fill="none" xmlns="http://www.w3.org/2000/svg">
<rect x="0.5" width="45" height="45" rx="8" fill="white"/>
<g clip-path="url(#clip0_117_59)">
<path d="M22.9999 26.7667C25.3564 26.7667 27.2666 24.8564 27.2666 22.5C27.2666 20.1436 25.3564 18.2333 22.9999 18.2333C20.6435 18.2333 18.7333 20.1436 18.7333 22.5C18.7333 24.8564 20.6435 26.7667 22.9999 26.7667Z" fill="#1B202B"/>
<path d="M19 9.16667L16.56 11.8333H12.3333C10.8666 11.8333 9.66663 13.0333 9.66663 14.5V30.5C9.66663 31.9667 10.8666 33.1667 12.3333 33.1667H33.6666C35.1333 33.1667 36.3333 31.9667 36.3333 30.5V14.5C36.3333 13.0333 35.1333 11.8333 33.6666 11.8333H29.44L27 9.16667H19ZM23 29.1667C19.32 29.1667 16.3333 26.18 16.3333 22.5C16.3333 18.82 19.32 15.8333 23 15.8333C26.68 15.8333 29.6666 18.82 29.6666 22.5C29.6666 26.18 26.68 29.1667 23 29.1667Z" fill="#1B202B"/>
</g>
<defs>
<clipPath id="clip0_117_59">
<rect width="32" height="32" fill="white" transform="translate(7 6.5)"/>
</clipPath>
</defs>
</svg>
