<svg width="600" height="364" viewBox="0 0 600 364" fill="none" xmlns="http://www.w3.org/2000/svg">
<path d="M13.0001 118.339C13.0001 118.339 6.50049 85.3392 13.0001 80.3393C25.4788 70.7398 19.2547 109.606 34 102C47.1171 95.2337 16.0879 74.7448 30 66C47.5002 54.9999 44.9134 98.8473 61.5 87C72.0002 79.5 41.0329 67.1588 55.0002 61.3392C63 58.006 85.4999 80.3393 85.4999 80.3393" stroke="#1B212C" stroke-width="20" stroke-linecap="round"/>
<path d="M10 117.839L62 143.339" stroke="#1B212C" stroke-width="5" stroke-linecap="round"/>
<path d="M90.5 80.8392V129.839" stroke="#1B212C" stroke-width="5" stroke-linecap="round"/>
<path d="M603.805 362.5C603.805 362.5 370.501 274.5 297.501 171C277.153 142.151 275.001 86 275.001 79.5C275.001 73 279.826 35.9989 297.501 20.6977C313.579 6.77849 327.782 4.4278 349.001 2.99997C371.313 1.49849 389.57 2.56224 405.001 14.97C431.782 36.5052 447.805 78.5671 447.805 116C447.805 278.567 275.696 306.778 179.001 223.5C53.8877 115.748 80 143 80 143" stroke="#1B212C" stroke-width="3" stroke-linecap="round"/>
</svg>
